<svg xmlns="http://www.w3.org/2000/svg" xmlns:xlink="http://www.w3.org/1999/xlink">

<symbol id="arrow-left" viewBox="0 0 20 20" fill="none">
<path d="M18.3334 10H1.66669" stroke="currentColor" stroke-width="2" stroke-miterlimit="10" stroke-linecap="round" stroke-linejoin="round"/>
<path d="M7.50002 15.8333L1.66669 9.99996L7.50002 4.16663" stroke="currentColor" stroke-width="2" stroke-miterlimit="10" stroke-linecap="round" stroke-linejoin="round"
/>
</symbol>
<symbol id="arrow-right" viewBox="0 0 20 20" fill="none">
<path d="M18.3334 10H1.66669" stroke="currentColor" stroke-width="2" stroke-miterlimit="10" stroke-linecap="round" stroke-linejoin="round"/>
<path d="M7.50002 15.8333L1.66669 9.99996L7.50002 4.16663" stroke="currentColor" stroke-width="2" stroke-miterlimit="10" stroke-linecap="round" stroke-linejoin="round"
transform="rotate(180 10 10)"/>
</symbol>

<symbol id="eye" viewBox="4 4 16 16" fill="none">
<path d="M11.93,7.28C8.87,7.28,6.1,9,4.05,11.88a0.69,0.69,0,0,0,0,.79c2,2.85,4.82,4.61,7.87,4.61s5.83-1.75,7.87-4.6a0.69,0.69,0,0,0,0-.79C17.75,9,15,7.28,11.93,7.28Zm0.22,8.52A3.45,3.45,0,0,1,8.57,12a3.46,3.46,0,0,1,3.14-3.29,3.45,3.45,0,0,1,3.58,3.75A3.47,3.47,0,0,1,12.14,15.8ZM12,14.17a1.9,1.9,0,1,1,1.69-1.77A1.85,1.85,0,0,1,12,14.17Z" fill="currentColor"></path>
</symbol>

<symbol id="eye-off" viewBox="4 4 16 16" fill="none">
      <polygon points="18.68 20.13 4 5.38 5.32 4.13 20 18.87 18.68 20.13" fill="currentColor"></polygon>
      <path fill="currentColor" d="M12.06,8.77A3.42,3.42,0,0,1,15.26,12L18,14.72a13.33,13.33,0,0,0,1.81-2,0.69,0.69,0,0,0,0-.79C17.75,9,15,7.28,11.92,7.28a7.94,7.94,0,0,0-1.25.11Z"></path>
      <path fill="currentColor" d="M12,14.17a1.83,1.83,0,0,0,1.58-1.26l-2.38-2.39a1.9,1.9,0,0,0-1.12,1.63A1.85,1.85,0,0,0,12,14.17Z"></path>
      <path fill="currentColor" d="M14.79,14.09a3.35,3.35,0,0,1-2.65,1.71A3.45,3.45,0,0,1,8.57,12a3.56,3.56,0,0,1,1.5-2.7L8.69,8a11.38,11.38,0,0,0-4.64,3.92,0.69,0.69,0,0,0,0,.79c2,2.85,4.82,4.61,7.87,4.61a8.44,8.44,0,0,0,4.61-1.43Z"></path>
</symbol>

<symbol id="circle" viewBox="0 0 16 16" fill="currentColor">
<circle cx="8" cy="8" r="8"/>
</symbol>

<symbol id="pen" viewBox="0 0 12 12" fill="currentColor">
<g xmlns="http://www.w3.org/2000/svg">
	<path d="M6.1,2.6L0.2,8.5C0.1,8.6,0,8.8,0,9v2.3C0,11.7,0.3,12,0.8,12H3c0.2,0,0.4-0.1,0.5-0.2l5.9-5.8L6.1,2.6z"/>
	<path d="M11.8,2.5L9.5,0.2c-0.3-0.3-0.8-0.3-1,0L7.1,1.6l3.3,3.3l1.4-1.4C12.1,3.2,12.1,2.8,11.8,2.5z"/>
</g>
</symbol>

<symbol id="target" viewBox="0 0 12 12" fill="currentColor">
<g xmlns="http://www.w3.org/2000/svg">
	<rect x="0" width="1.5" height="4.5"/>	
		<rect x="1.5" y="-1.5" transform="matrix(-1.836970e-16 1 -1 -1.836970e-16 2.9945 -1.4945)" width="1.5" height="4.5"/>	
		<rect x="9" y="-1.5" transform="matrix(-1.836970e-16 1 -1 -1.836970e-16 10.4951 -8.9951)" width="1.5" height="4.5"/>
	<rect x="10.5" transform="matrix(-1 -1.224647e-16 1.224647e-16 -1 22.4863 4.5)" width="1.5" height="4.5"/>
	<rect x="10.5" y="7.5" transform="matrix(-1 -1.224647e-16 1.224647e-16 -1 22.4967 19.5)" width="1.5" height="4.5"/>
	<rect x="9" y="9" transform="matrix(6.123234e-17 -1 1 6.123234e-17 -1.4997 21.0003)" width="1.5" height="4.5"/>
	<rect x="1.5" y="9" transform="matrix(6.123234e-17 -1 1 6.123234e-17 -9.0003 13.4997)" width="1.5" height="4.5"/>
	<rect x="0" y="7.5" width="1.5" height="4.5"/>
	<ellipse cx="6" cy="6" rx="2.2" ry="2.3"/>
</g>
</symbol>

<symbol id="info" viewBox="2 2 20 20" fill="currentColor">
<g class="nc-icon-wrapper" fill="currentColor">
<path d="M11 17h2v-6h-2v6zm1-15C6.48 2 2 6.48 2 12s4.48 10 10 10 10-4.48 10-10S17.52 2 12 2zm0 18c-4.41 0-8-3.59-8-8s3.59-8 8-8 8 3.59 8 8-3.59 8-8 8zM11 9h2V7h-2v2z"></path>
</g>
</symbol>

<symbol id="polygon" viewBox="4 0 20 20" fill="currentColor">
      <rect x="6.04" y="8.9" width="2.05" height="0.97" transform="translate(-4.65 10.2) rotate(-57.04)"></rect><rect x="10.84" y="6.25" width="2.05" height="0.97"></rect><rect x="10.84" y="16.89" width="2.05" height="0.97"></rect><rect x="6.58" y="13.65" width="0.97" height="2.05" transform="translate(-6.85 6.2) rotate(-32.96)"></rect><path d="M8.68,6.28a0.45,0.45,0,1,1-.45.45,0.45,0.45,0,0,1,.45-0.45m0-1a1.45,1.45,0,1,0,1.45,1.45A1.45,1.45,0,0,0,8.68,5.28h0Z"></path><path d="M8.68,16.87a0.45,0.45,0,1,1-.45.45,0.45,0.45,0,0,1,.45-0.45m0-1a1.45,1.45,0,1,0,1.45,1.45,1.45,1.45,0,0,0-1.45-1.45h0Z"></path><path d="M5.45,11.58A0.45,0.45,0,1,1,5,12a0.45,0.45,0,0,1,.45-0.45m0-1A1.45,1.45,0,1,0,6.9,12a1.45,1.45,0,0,0-1.45-1.45h0Z"></path><rect x="15.91" y="14.14" width="2.05" height="0.97" transform="translate(-4.55 20.88) rotate(-57.04)"></rect><rect x="16.45" y="8.31" width="0.97" height="2.05" transform="translate(-2.35 10.72) rotate(-32.96)"></rect><path d="M15.32,16.82a0.45,0.45,0,1,1-.45.45,0.45,0.45,0,0,1,.45-0.45m0-1a1.45,1.45,0,1,0,1.45,1.45,1.45,1.45,0,0,0-1.45-1.45h0Z"></path><path d="M15.32,6.24a0.45,0.45,0,1,1-.45.45,0.45,0.45,0,0,1,.45-0.45m0-1a1.45,1.45,0,1,0,1.45,1.45,1.45,1.45,0,0,0-1.45-1.45h0Z"></path><path d="M18.55,11.53a0.45,0.45,0,1,1-.45.45,0.45,0.45,0,0,1,.45-0.45m0-1A1.45,1.45,0,1,0,20,12a1.45,1.45,0,0,0-1.45-1.45h0Z"></path>
</symbol>

<symbol id="selectreg" viewBox="12 13 24 20" fill="currentColor">
    <path d="m 21.099609,8.4511719 c -1.469868,0 -2.548828,1.0789594 -2.548828,2.5488281 l 0,10.300781 a 0.45145663,0.45145663 0 0 1 -0.794922,0.291016 c -1.069223,-1.263628 -2.20723,-2.140625 -3.15625,-2.140625 -0.799555,0 -1.440052,0.272383 -1.724609,0.699219 a 0.45145663,0.45145663 0 0 1 -0.02344,0.03125 c -0.304031,0.380039 -0.58479,1.101873 -0.220703,2.285156 0.363172,1.180307 2.071447,4.826112 3.949219,7.791015 0.686643,1.07901 1.37235,1.961753 1.960938,2.648438 a 0.45145663,0.45145663 0 0 1 0.01367,0.01367 c 1.100572,1.400729 1.896484,2.439482 1.896484,4.080078 0,0.199686 0.05878,0.322449 0.142578,0.40625 0.0838,0.0838 0.206564,0.142578 0.40625,0.142578 l 12,0 c 0.199686,0 0.322449,-0.05878 0.40625,-0.142578 0.0838,-0.0838 0.142578,-0.206564 0.142578,-0.40625 0,-2.462696 0.514524,-4.413564 1.013672,-6.410156 C 35.061648,28.593252 35.548828,26.542127 35.548828,24 l 0,-3 c 0,-1.469869 -1.078959,-2.548828 -2.548828,-2.548828 -0.325352,0 -0.686138,0.08548 -0.957031,0.175781 A 0.45145663,0.45145663 0 0 1 31.46875,18.332031 C 31.119977,17.19852 30.206706,16.451172 29,16.451172 c -0.439576,0 -0.8348,0.08997 -1.128906,0.310547 a 0.45145663,0.45145663 0 0 1 -0.654297,-0.123047 c -0.424766,-0.679626 -1.181444,-1.1875 -2.117188,-1.1875 -0.325352,0 -0.55809,0.076 -0.857421,0.175781 a 0.45145663,0.45145663 0 0 1 -0.59375,-0.427734 l 0,-4.199219 c 0,-1.4698687 -1.07896,-2.5488281 -2.548829,-2.5488281 z M 21,9.5488281 c 0.400314,0 0.778723,0.1400511 1.044922,0.40625 0.266199,0.2661989 0.40625,0.6446079 0.40625,1.0449219 l 0,9 c 0,0.199686 0.05878,0.322449 0.142578,0.40625 0.0838,0.0838 0.206564,0.142578 0.40625,0.142578 0.199686,0 0.322449,-0.05878 0.40625,-0.142578 0.0838,-0.0838 0.142578,-0.206564 0.142578,-0.40625 l 0,-2 c 0,-0.400314 0.140051,-0.778723 0.40625,-1.044922 0.266199,-0.266199 0.644608,-0.40625 1.044922,-0.40625 0.400314,0 0.778723,0.140051 1.044922,0.40625 0.266199,0.266199 0.40625,0.644608 0.40625,1.044922 l 0,3 c 0,0.199686 0.05878,0.322449 0.142578,0.40625 0.0838,0.0838 0.206564,0.142578 0.40625,0.142578 0.199686,0 0.322449,-0.05878 0.40625,-0.142578 0.0838,-0.0838 0.142578,-0.206564 0.142578,-0.40625 l 0,-2 c 0,-0.400314 0.140051,-0.778723 0.40625,-1.044922 0.266199,-0.266199 0.644608,-0.40625 1.044922,-0.40625 0.400314,0 0.778723,0.140051 1.044922,0.40625 0.266199,0.266199 0.40625,0.644608 0.40625,1.044922 l 0,3 c 0,0.199686 0.05878,0.322449 0.142578,0.40625 0.0838,0.0838 0.206564,0.142578 0.40625,0.142578 0.199686,0 0.322449,-0.05878 0.40625,-0.142578 0.0838,-0.0838 0.142578,-0.206564 0.142578,-0.40625 l 0,-1 c 0,-0.400314 0.140051,-0.778723 0.40625,-1.044922 0.266199,-0.266199 0.644608,-0.40625 1.044922,-0.40625 0.400314,0 0.778723,0.140051 1.044922,0.40625 0.266199,0.266199 0.40625,0.644608 0.40625,1.044922 l 0,3 c 0,2.365422 -0.514537,4.312055 -1.013672,6.308594 l 0.0039,-0.01172 c -0.40345,1.815526 -0.892826,3.579678 -0.990234,5.722656 A 0.45145663,0.45145663 0 0 1 32,36.451172 l -10.099609,0 A 0.45145663,0.45145663 0 0 1 21.451172,36.052734 C 21.268949,34.50384 20.366883,33.503929 19.267578,32.304688 a 0.45145663,0.45145663 0 0 1 -0.0293,-0.0332 c -0.588009,-0.784011 -1.201373,-1.503012 -1.820312,-2.533203 l -0.002,-0.002 c -8.56e-4,-0.0014 -0.0011,-0.0025 -0.002,-0.0039 -1.007254,-1.612144 -1.886276,-3.221277 -2.554687,-4.570313 -0.669307,-1.350844 -1.123882,-2.415821 -1.294922,-3.042968 a 0.45145663,0.45145663 0 0 1 -0.0078,-0.03125 c -0.05341,-0.267047 -0.08399,-0.487278 -0.08399,-0.6875 0,-0.200222 -8.21e-4,-0.409335 0.208985,-0.619141 0.156606,-0.156607 0.331654,-0.197642 0.466797,-0.216797 0.135142,-0.01916 0.251856,-0.01563 0.351562,-0.01563 0.379126,0 0.656448,0.179905 0.982422,0.419922 0.325974,0.240017 0.676911,0.568581 1.03125,0.96875 0.708677,0.800338 1.432333,1.886537 1.90625,3.097656 a 0.45145663,0.45145663 0 0 1 0.03125,0.164063 l 0,0.800781 c 0,0.199686 0.05878,0.322449 0.142578,0.40625 0.0838,0.0838 0.206564,0.142578 0.40625,0.142578 0.199686,0 0.322449,-0.05878 0.40625,-0.142578 0.0838,-0.0838 0.142578,-0.206564 0.142578,-0.40625 l 0,-15 c 0,-0.400314 0.140051,-0.778723 0.40625,-1.0449219 C 20.221277,9.6888792 20.599686,9.5488281 21,9.5488281 Z"/>
</symbol>

</svg>