<svg xmlns="http://www.w3.org/2000/svg" xmlns:xlink="http://www.w3.org/1999/xlink">

<symbol id="arrow-left" viewBox="0 0 20 20" fill="none">
<path d="M18.3334 10H1.66669" stroke="currentColor" stroke-width="2" stroke-miterlimit="10" stroke-linecap="round" stroke-linejoin="round"/>
<path d="M7.50002 15.8333L1.66669 9.99996L7.50002 4.16663" stroke="currentColor" stroke-width="2" stroke-miterlimit="10" stroke-linecap="round" stroke-linejoin="round"
/>
</symbol>
<symbol id="arrow-right" viewBox="0 0 20 20" fill="none">
<path d="M18.3334 10H1.66669" stroke="currentColor" stroke-width="2" stroke-miterlimit="10" stroke-linecap="round" stroke-linejoin="round"/>
<path d="M7.50002 15.8333L1.66669 9.99996L7.50002 4.16663" stroke="currentColor" stroke-width="2" stroke-miterlimit="10" stroke-linecap="round" stroke-linejoin="round"
transform="rotate(180 10 10)"/>
</symbol>

<symbol id="eye" viewBox="0 0 16 12" fill="none">
<path d="M8.00002 12C11.6 12 14.4 8.9 15.6 7.1C16.1 6.4 16.1 5.5 15.6 4.8C14.4 3.1 11.6 0 8.00002 0C4.40002 0 1.60002 3.1 0.400024 4.9C-0.0999756 5.6 -0.0999756 6.5 0.400024 7.1C1.60002 8.9 4.40002 12 8.00002 12ZM8.00002 3C9.70002 3 11 4.3 11 6C11 7.7 9.70002 9 8.00002 9C6.30002 9 5.00002 7.7 5.00002 6C5.00002 4.3 6.30002 3 8.00002 3Z" fill="currentColor"/>
</symbol>

<symbol id="circle" viewBox="0 0 16 16" fill="currentColor">
<circle cx="8" cy="8" r="8"/>
</symbol>

<symbol id="pen" viewBox="0 0 12 12" fill="currentColor">
<g xmlns="http://www.w3.org/2000/svg">
	<path d="M6.1,2.6L0.2,8.5C0.1,8.6,0,8.8,0,9v2.3C0,11.7,0.3,12,0.8,12H3c0.2,0,0.4-0.1,0.5-0.2l5.9-5.8L6.1,2.6z"/>
	<path d="M11.8,2.5L9.5,0.2c-0.3-0.3-0.8-0.3-1,0L7.1,1.6l3.3,3.3l1.4-1.4C12.1,3.2,12.1,2.8,11.8,2.5z"/>
</g>
</symbol>

<symbol id="target" viewBox="0 0 12 12" fill="currentColor">
<g xmlns="http://www.w3.org/2000/svg">
	<rect x="0" width="1.5" height="4.5"/>	
		<rect x="1.5" y="-1.5" transform="matrix(-1.836970e-16 1 -1 -1.836970e-16 2.9945 -1.4945)" width="1.5" height="4.5"/>	
		<rect x="9" y="-1.5" transform="matrix(-1.836970e-16 1 -1 -1.836970e-16 10.4951 -8.9951)" width="1.5" height="4.5"/>
	<rect x="10.5" transform="matrix(-1 -1.224647e-16 1.224647e-16 -1 22.4863 4.5)" width="1.5" height="4.5"/>
	<rect x="10.5" y="7.5" transform="matrix(-1 -1.224647e-16 1.224647e-16 -1 22.4967 19.5)" width="1.5" height="4.5"/>
	<rect x="9" y="9" transform="matrix(6.123234e-17 -1 1 6.123234e-17 -1.4997 21.0003)" width="1.5" height="4.5"/>
	<rect x="1.5" y="9" transform="matrix(6.123234e-17 -1 1 6.123234e-17 -9.0003 13.4997)" width="1.5" height="4.5"/>
	<rect x="0" y="7.5" width="1.5" height="4.5"/>
	<ellipse cx="6" cy="6" rx="2.2" ry="2.3"/>
</g>
</symbol>

<symbol id="info" viewBox="2 2 20 20" fill="currentColor">
<g class="nc-icon-wrapper" fill="currentColor">
<path d="M11 17h2v-6h-2v6zm1-15C6.48 2 2 6.48 2 12s4.48 10 10 10 10-4.48 10-10S17.52 2 12 2zm0 18c-4.41 0-8-3.59-8-8s3.59-8 8-8 8 3.59 8 8-3.59 8-8 8zM11 9h2V7h-2v2z"></path>
</g>
</symbol>

<symbol id="polygon" viewBox="4 0 20 20" fill="currentColor">
      <rect x="6.04" y="8.9" width="2.05" height="0.97" transform="translate(-4.65 10.2) rotate(-57.04)"></rect><rect x="10.84" y="6.25" width="2.05" height="0.97"></rect><rect x="10.84" y="16.89" width="2.05" height="0.97"></rect><rect x="6.58" y="13.65" width="0.97" height="2.05" transform="translate(-6.85 6.2) rotate(-32.96)"></rect><path d="M8.68,6.28a0.45,0.45,0,1,1-.45.45,0.45,0.45,0,0,1,.45-0.45m0-1a1.45,1.45,0,1,0,1.45,1.45A1.45,1.45,0,0,0,8.68,5.28h0Z"></path><path d="M8.68,16.87a0.45,0.45,0,1,1-.45.45,0.45,0.45,0,0,1,.45-0.45m0-1a1.45,1.45,0,1,0,1.45,1.45,1.45,1.45,0,0,0-1.45-1.45h0Z"></path><path d="M5.45,11.58A0.45,0.45,0,1,1,5,12a0.45,0.45,0,0,1,.45-0.45m0-1A1.45,1.45,0,1,0,6.9,12a1.45,1.45,0,0,0-1.45-1.45h0Z"></path><rect x="15.91" y="14.14" width="2.05" height="0.97" transform="translate(-4.55 20.88) rotate(-57.04)"></rect><rect x="16.45" y="8.31" width="0.97" height="2.05" transform="translate(-2.35 10.72) rotate(-32.96)"></rect><path d="M15.32,16.82a0.45,0.45,0,1,1-.45.45,0.45,0.45,0,0,1,.45-0.45m0-1a1.45,1.45,0,1,0,1.45,1.45,1.45,1.45,0,0,0-1.45-1.45h0Z"></path><path d="M15.32,6.24a0.45,0.45,0,1,1-.45.45,0.45,0.45,0,0,1,.45-0.45m0-1a1.45,1.45,0,1,0,1.45,1.45,1.45,1.45,0,0,0-1.45-1.45h0Z"></path><path d="M18.55,11.53a0.45,0.45,0,1,1-.45.45,0.45,0.45,0,0,1,.45-0.45m0-1A1.45,1.45,0,1,0,20,12a1.45,1.45,0,0,0-1.45-1.45h0Z"></path>
</symbol>

<symbol id="selectreg" viewBox="0 0 512.001 512.001" fill="currentColor">
      <path d="M429.742,319.31L82.49,0l-0.231,471.744l105.375-100.826l61.89,141.083l96.559-42.358l-61.89-141.083L429.742,319.31z     M306.563,454.222l-41.62,18.259l-67.066-152.879l-85.589,81.894l0.164-333.193l245.264,225.529l-118.219,7.512L306.563,454.222z"/>
</symbol>

</svg>